# xmcd
#
# Track frame offsets:
#	150
#	14365
#	29470
#	44185
#	56632
#	70437
#	83825
#	99455
#	113525
#	127667
#
# Disc length: 1911 seconds
#
# Revision: 1
# Processed by: cddbd v1.5.2PL0 Copyright (c) Steve Scherf et al.
# Submitted via: EZCDAudioConverter 6.0.4.1
#
DISCID=8107750a
DTITLE=Linda Davis - Shoot for the Moon
DYEAR=1994
DGENRE=Country
TTITLE0=Shoot for the Moon
TTITLE1=Company Time
TTITLE2=If Promises Were Gold
TTITLE3=Love Didn't Do It
TTITLE4=He's in Dallas
TTITLE5=When You Took Your Love Away
TTITLE6=How Can I Make You Love Me
TTITLE7=Don't You Want My Love
TTITLE8=In Pictures
TTITLE9=A Family Tie
EXTD=
EXTT0=
EXTT1=
EXTT2=
EXTT3=
EXTT4=
EXTT5=
EXTT6=
EXTT7=
EXTT8=
EXTT9=
PLAYORDER=
